<svg width="800" height="600" xmlns="http://www.w3.org/2000/svg">
<rect width="100%" height="100%" fill="white" />
<line x1="60" y1="540" x2="740" y2="540" stroke="black" stroke-width="2"/>
<line x1="60" y1="540" x2="60" y2="60" stroke="black" stroke-width="2"/>
<line x1="60" y1="540.0" x2="740" y2="540.0" stroke="lightgray" stroke-dasharray="5,5"/>
<text x="50" y="545.0" text-anchor="end" font-family="Arial" font-size="12">0</text>
<line x1="60" y1="507.45383441248873" x2="740" y2="507.45383441248873" stroke="lightgray" stroke-dasharray="5,5"/>
<text x="50" y="512.4538344124887" text-anchor="end" font-family="Arial" font-size="12">1</text>
<line x1="60" y1="474.9076688249775" x2="740" y2="474.9076688249775" stroke="lightgray" stroke-dasharray="5,5"/>
<text x="50" y="479.9076688249775" text-anchor="end" font-family="Arial" font-size="12">2</text>
<line x1="60" y1="442.3615032374663" x2="740" y2="442.3615032374663" stroke="lightgray" stroke-dasharray="5,5"/>
<text x="50" y="447.3615032374663" text-anchor="end" font-family="Arial" font-size="12">3</text>
<line x1="60" y1="409.81533764995504" x2="740" y2="409.81533764995504" stroke="lightgray" stroke-dasharray="5,5"/>
<text x="50" y="414.81533764995504" text-anchor="end" font-family="Arial" font-size="12">4</text>
<line x1="60" y1="377.2691720624438" x2="740" y2="377.2691720624438" stroke="lightgray" stroke-dasharray="5,5"/>
<text x="50" y="382.2691720624438" text-anchor="end" font-family="Arial" font-size="12">5</text>
<line x1="60" y1="344.72300647493256" x2="740" y2="344.72300647493256" stroke="lightgray" stroke-dasharray="5,5"/>
<text x="50" y="349.72300647493256" text-anchor="end" font-family="Arial" font-size="12">6</text>
<line x1="60" y1="312.17684088742135" x2="740" y2="312.17684088742135" stroke="lightgray" stroke-dasharray="5,5"/>
<text x="50" y="317.17684088742135" text-anchor="end" font-family="Arial" font-size="12">7</text>
<line x1="60" y1="279.6306752999101" x2="740" y2="279.6306752999101" stroke="lightgray" stroke-dasharray="5,5"/>
<text x="50" y="284.6306752999101" text-anchor="end" font-family="Arial" font-size="12">8</text>
<line x1="60" y1="247.0845097123988" x2="740" y2="247.0845097123988" stroke="lightgray" stroke-dasharray="5,5"/>
<text x="50" y="252.0845097123988" text-anchor="end" font-family="Arial" font-size="12">9</text>
<line x1="60" y1="214.53834412488754" x2="740" y2="214.53834412488754" stroke="lightgray" stroke-dasharray="5,5"/>
<text x="50" y="219.53834412488754" text-anchor="end" font-family="Arial" font-size="12">10</text>
<line x1="60" y1="181.99217853737633" x2="740" y2="181.99217853737633" stroke="lightgray" stroke-dasharray="5,5"/>
<text x="50" y="186.99217853737633" text-anchor="end" font-family="Arial" font-size="12">11</text>
<line x1="60" y1="149.44601294986512" x2="740" y2="149.44601294986512" stroke="lightgray" stroke-dasharray="5,5"/>
<text x="50" y="154.44601294986512" text-anchor="end" font-family="Arial" font-size="12">12</text>
<line x1="60" y1="116.89984736235385" x2="740" y2="116.89984736235385" stroke="lightgray" stroke-dasharray="5,5"/>
<text x="50" y="121.89984736235385" text-anchor="end" font-family="Arial" font-size="12">13</text>
<line x1="60" y1="84.35368177484264" x2="740" y2="84.35368177484264" stroke="lightgray" stroke-dasharray="5,5"/>
<text x="50" y="89.35368177484264" text-anchor="end" font-family="Arial" font-size="12">14</text>
<line x1="60.0" y1="540" x2="60.0" y2="60" stroke="lightgray" stroke-dasharray="5,5"/>
<text x="60.0" y="560" text-anchor="middle" font-family="Arial" font-size="12">128</text>
<line x1="173.33333333333331" y1="540" x2="173.33333333333331" y2="60" stroke="lightgray" stroke-dasharray="5,5"/>
<text x="173.33333333333331" y="560" text-anchor="middle" font-family="Arial" font-size="12">256</text>
<line x1="286.66666666666663" y1="540" x2="286.66666666666663" y2="60" stroke="lightgray" stroke-dasharray="5,5"/>
<text x="286.66666666666663" y="560" text-anchor="middle" font-family="Arial" font-size="12">512</text>
<line x1="400.0" y1="540" x2="400.0" y2="60" stroke="lightgray" stroke-dasharray="5,5"/>
<text x="400.0" y="560" text-anchor="middle" font-family="Arial" font-size="12">1024</text>
<line x1="513.3333333333333" y1="540" x2="513.3333333333333" y2="60" stroke="lightgray" stroke-dasharray="5,5"/>
<text x="513.3333333333333" y="560" text-anchor="middle" font-family="Arial" font-size="12">2048</text>
<line x1="626.6666666666667" y1="540" x2="626.6666666666667" y2="60" stroke="lightgray" stroke-dasharray="5,5"/>
<text x="626.6666666666667" y="560" text-anchor="middle" font-family="Arial" font-size="12">4096</text>
<line x1="740.0" y1="540" x2="740.0" y2="60" stroke="lightgray" stroke-dasharray="5,5"/>
<text x="740.0" y="560" text-anchor="middle" font-family="Arial" font-size="12">8192</text>
<text x="400.0" y="30.0" text-anchor="middle" font-family="Arial" font-size="20" font-weight="bold">FlashAttention Speedup (vs Naive)</text>
<rect x="650" y="60" width="10" height="10" fill="blue" /><text x="665" y="70" font-family="Arial" font-size="12">Flash V1</text><rect x="650" y="80" width="10" height="10" fill="green" /><text x="665" y="90" font-family="Arial" font-size="12">Flash V2 (Float4)</text><rect x="650" y="100" width="10" height="10" fill="red" /><text x="665" y="110" font-family="Arial" font-size="12">Flash V3 (Mat FP32)</text><rect x="650" y="120" width="10" height="10" fill="purple" /><text x="665" y="130" font-family="Arial" font-size="12">Flash V4 (Mat FP16)</text><polyline points="60.0,491.55085476958607 173.33333333333331,491.53865013938463 286.66666666666663,495.6550262294694 400.0,514.5955271176967 513.3333333333333,518.3344955481679 626.6666666666667,513.4882862794511 740.0,506.4356459620515" fill="none" stroke="blue" stroke-width="3"/>
<circle cx="60.0" cy="491.55085476958607" r="4" fill="blue" />
<text x="60.0" y="481.55085476958607" text-anchor="middle" font-family="Arial" font-size="10" fill="blue">1.5x</text>
<circle cx="173.33333333333331" cy="491.53865013938463" r="4" fill="blue" />
<text x="173.33333333333331" y="481.53865013938463" text-anchor="middle" font-family="Arial" font-size="10" fill="blue">1.5x</text>
<circle cx="286.66666666666663" cy="495.6550262294694" r="4" fill="blue" />
<text x="286.66666666666663" y="485.6550262294694" text-anchor="middle" font-family="Arial" font-size="10" fill="blue">1.4x</text>
<circle cx="400.0" cy="514.5955271176967" r="4" fill="blue" />
<text x="400.0" y="504.59552711769675" text-anchor="middle" font-family="Arial" font-size="10" fill="blue">0.8x</text>
<circle cx="513.3333333333333" cy="518.3344955481679" r="4" fill="blue" />
<text x="513.3333333333333" y="508.33449554816787" text-anchor="middle" font-family="Arial" font-size="10" fill="blue">0.7x</text>
<circle cx="626.6666666666667" cy="513.4882862794511" r="4" fill="blue" />
<text x="626.6666666666667" y="503.48828627945113" text-anchor="middle" font-family="Arial" font-size="10" fill="blue">0.8x</text>
<circle cx="740.0" cy="506.4356459620515" r="4" fill="blue" />
<text x="740.0" y="496.4356459620515" text-anchor="middle" font-family="Arial" font-size="10" fill="blue">1.0x</text>
<polyline points="60.0,389.4222081699927 173.33333333333331,284.2060313302605 286.66666666666663,242.4157660521297 400.0,361.1260479159994 513.3333333333333,407.34932541647703 626.6666666666667,455.9566680527997 740.0,370.87606628483724" fill="none" stroke="green" stroke-width="3"/>
<circle cx="60.0" cy="389.4222081699927" r="4" fill="green" />
<text x="60.0" y="379.4222081699927" text-anchor="middle" font-family="Arial" font-size="10" fill="green">4.6x</text>
<circle cx="173.33333333333331" cy="284.2060313302605" r="4" fill="green" />
<text x="173.33333333333331" y="274.2060313302605" text-anchor="middle" font-family="Arial" font-size="10" fill="green">7.9x</text>
<circle cx="286.66666666666663" cy="242.4157660521297" r="4" fill="green" />
<text x="286.66666666666663" y="232.4157660521297" text-anchor="middle" font-family="Arial" font-size="10" fill="green">9.1x</text>
<circle cx="400.0" cy="361.1260479159994" r="4" fill="green" />
<text x="400.0" y="351.1260479159994" text-anchor="middle" font-family="Arial" font-size="10" fill="green">5.5x</text>
<circle cx="513.3333333333333" cy="407.34932541647703" r="4" fill="green" />
<text x="513.3333333333333" y="397.34932541647703" text-anchor="middle" font-family="Arial" font-size="10" fill="green">4.1x</text>
<circle cx="626.6666666666667" cy="455.9566680527997" r="4" fill="green" />
<text x="626.6666666666667" y="445.9566680527997" text-anchor="middle" font-family="Arial" font-size="10" fill="green">2.6x</text>
<circle cx="740.0" cy="370.87606628483724" r="4" fill="green" />
<text x="740.0" y="360.87606628483724" text-anchor="middle" font-family="Arial" font-size="10" fill="green">5.2x</text>
<polyline points="60.0,418.7696129870902 173.33333333333331,206.01606290342693 286.66666666666663,103.63636363636368 400.0,302.3540620450136 513.3333333333333,341.97049483364447 626.6666666666667,413.46583816850097 740.0,375.2909075431981" fill="none" stroke="red" stroke-width="3"/>
<circle cx="60.0" cy="418.7696129870902" r="4" fill="red" />
<text x="60.0" y="408.7696129870902" text-anchor="middle" font-family="Arial" font-size="10" fill="red">3.7x</text>
<circle cx="173.33333333333331" cy="206.01606290342693" r="4" fill="red" />
<text x="173.33333333333331" y="196.01606290342693" text-anchor="middle" font-family="Arial" font-size="10" fill="red">10.3x</text>
<circle cx="286.66666666666663" cy="103.63636363636368" r="4" fill="red" />
<text x="286.66666666666663" y="93.63636363636368" text-anchor="middle" font-family="Arial" font-size="10" fill="red">13.4x</text>
<circle cx="400.0" cy="302.3540620450136" r="4" fill="red" />
<text x="400.0" y="292.3540620450136" text-anchor="middle" font-family="Arial" font-size="10" fill="red">7.3x</text>
<circle cx="513.3333333333333" cy="341.97049483364447" r="4" fill="red" />
<text x="513.3333333333333" y="331.97049483364447" text-anchor="middle" font-family="Arial" font-size="10" fill="red">6.1x</text>
<circle cx="626.6666666666667" cy="413.46583816850097" r="4" fill="red" />
<text x="626.6666666666667" y="403.46583816850097" text-anchor="middle" font-family="Arial" font-size="10" fill="red">3.9x</text>
<circle cx="740.0" cy="375.2909075431981" r="4" fill="red" />
<text x="740.0" y="365.2909075431981" text-anchor="middle" font-family="Arial" font-size="10" fill="red">5.1x</text>
<polyline points="60.0,367.12406852931576 173.33333333333331,338.217400509925 286.66666666666663,367.1264809288859 400.0,477.3034353330581 513.3333333333333,514.784492428622 626.6666666666667,526.3995409250479 740.0,524.2630492887323" fill="none" stroke="purple" stroke-width="3"/>
<circle cx="60.0" cy="367.12406852931576" r="4" fill="purple" />
<text x="60.0" y="357.12406852931576" text-anchor="middle" font-family="Arial" font-size="10" fill="purple">5.3x</text>
<circle cx="173.33333333333331" cy="338.217400509925" r="4" fill="purple" />
<text x="173.33333333333331" y="328.217400509925" text-anchor="middle" font-family="Arial" font-size="10" fill="purple">6.2x</text>
<circle cx="286.66666666666663" cy="367.1264809288859" r="4" fill="purple" />
<text x="286.66666666666663" y="357.1264809288859" text-anchor="middle" font-family="Arial" font-size="10" fill="purple">5.3x</text>
<circle cx="400.0" cy="477.3034353330581" r="4" fill="purple" />
<text x="400.0" y="467.3034353330581" text-anchor="middle" font-family="Arial" font-size="10" fill="purple">1.9x</text>
<circle cx="513.3333333333333" cy="514.784492428622" r="4" fill="purple" />
<text x="513.3333333333333" y="504.784492428622" text-anchor="middle" font-family="Arial" font-size="10" fill="purple">0.8x</text>
<circle cx="626.6666666666667" cy="526.3995409250479" r="4" fill="purple" />
<text x="626.6666666666667" y="516.3995409250479" text-anchor="middle" font-family="Arial" font-size="10" fill="purple">0.4x</text>
<circle cx="740.0" cy="524.2630492887323" r="4" fill="purple" />
<text x="740.0" y="514.2630492887323" text-anchor="middle" font-family="Arial" font-size="10" fill="purple">0.5x</text>
</svg>