<svg width="800" height="600" xmlns="http://www.w3.org/2000/svg">
<rect width="100%" height="100%" fill="white" />
<line x1="60" y1="540" x2="740" y2="540" stroke="black" stroke-width="2"/>
<line x1="60" y1="540" x2="60" y2="60" stroke="black" stroke-width="2"/>
<line x1="60" y1="540.0" x2="740" y2="540.0" stroke="lightgray" stroke-dasharray="5,5"/>
<text x="50" y="545.0" text-anchor="end" font-family="Arial" font-size="12">0</text>
<line x1="60" y1="473.39198168379664" x2="740" y2="473.39198168379664" stroke="lightgray" stroke-dasharray="5,5"/>
<text x="50" y="478.39198168379664" text-anchor="end" font-family="Arial" font-size="12">1</text>
<line x1="60" y1="406.7839633675933" x2="740" y2="406.7839633675933" stroke="lightgray" stroke-dasharray="5,5"/>
<text x="50" y="411.7839633675933" text-anchor="end" font-family="Arial" font-size="12">2</text>
<line x1="60" y1="340.17594505138993" x2="740" y2="340.17594505138993" stroke="lightgray" stroke-dasharray="5,5"/>
<text x="50" y="345.17594505138993" text-anchor="end" font-family="Arial" font-size="12">3</text>
<line x1="60" y1="273.5679267351865" x2="740" y2="273.5679267351865" stroke="lightgray" stroke-dasharray="5,5"/>
<text x="50" y="278.5679267351865" text-anchor="end" font-family="Arial" font-size="12">4</text>
<line x1="60" y1="206.95990841898316" x2="740" y2="206.95990841898316" stroke="lightgray" stroke-dasharray="5,5"/>
<text x="50" y="211.95990841898316" text-anchor="end" font-family="Arial" font-size="12">5</text>
<line x1="60" y1="140.3518901027798" x2="740" y2="140.3518901027798" stroke="lightgray" stroke-dasharray="5,5"/>
<text x="50" y="145.3518901027798" text-anchor="end" font-family="Arial" font-size="12">6</text>
<line x1="60" y1="73.74387178657639" x2="740" y2="73.74387178657639" stroke="lightgray" stroke-dasharray="5,5"/>
<text x="50" y="78.74387178657639" text-anchor="end" font-family="Arial" font-size="12">7</text>
<line x1="60.0" y1="540" x2="60.0" y2="60" stroke="lightgray" stroke-dasharray="5,5"/>
<text x="60.0" y="560" text-anchor="middle" font-family="Arial" font-size="12">128</text>
<line x1="173.33333333333331" y1="540" x2="173.33333333333331" y2="60" stroke="lightgray" stroke-dasharray="5,5"/>
<text x="173.33333333333331" y="560" text-anchor="middle" font-family="Arial" font-size="12">256</text>
<line x1="286.66666666666663" y1="540" x2="286.66666666666663" y2="60" stroke="lightgray" stroke-dasharray="5,5"/>
<text x="286.66666666666663" y="560" text-anchor="middle" font-family="Arial" font-size="12">512</text>
<line x1="400.0" y1="540" x2="400.0" y2="60" stroke="lightgray" stroke-dasharray="5,5"/>
<text x="400.0" y="560" text-anchor="middle" font-family="Arial" font-size="12">1024</text>
<line x1="513.3333333333333" y1="540" x2="513.3333333333333" y2="60" stroke="lightgray" stroke-dasharray="5,5"/>
<text x="513.3333333333333" y="560" text-anchor="middle" font-family="Arial" font-size="12">2048</text>
<line x1="626.6666666666667" y1="540" x2="626.6666666666667" y2="60" stroke="lightgray" stroke-dasharray="5,5"/>
<text x="626.6666666666667" y="560" text-anchor="middle" font-family="Arial" font-size="12">4096</text>
<line x1="740.0" y1="540" x2="740.0" y2="60" stroke="lightgray" stroke-dasharray="5,5"/>
<text x="740.0" y="560" text-anchor="middle" font-family="Arial" font-size="12">8192</text>
<text x="400.0" y="30.0" text-anchor="middle" font-family="Arial" font-size="20" font-weight="bold">FlashAttention Speedup (vs Naive)</text>
<rect x="650" y="60" width="10" height="10" fill="blue" /><text x="665" y="70" font-family="Arial" font-size="12">Flash V1</text><rect x="650" y="80" width="10" height="10" fill="green" /><text x="665" y="90" font-family="Arial" font-size="12">Flash V2 (Float4)</text><rect x="650" y="100" width="10" height="10" fill="red" /><text x="665" y="110" font-family="Arial" font-size="12">Flash V3 (Mat FP32)</text><rect x="650" y="120" width="10" height="10" fill="purple" /><text x="665" y="130" font-family="Arial" font-size="12">Flash V4 (Mat FP16)</text><polyline points="60.0,500.3283278164382 173.33333333333331,456.0858715131088 286.66666666666663,461.57452026108746 400.0,470.289543583265 513.3333333333333,427.32856240791415 626.6666666666667,444.21822945285527 740.0,449.47812356356843" fill="none" stroke="blue" stroke-width="3"/>
<circle cx="60.0" cy="500.3283278164382" r="4" fill="blue" />
<text x="60.0" y="490.3283278164382" text-anchor="middle" font-family="Arial" font-size="10" fill="blue">0.6x</text>
<circle cx="173.33333333333331" cy="456.0858715131088" r="4" fill="blue" />
<text x="173.33333333333331" y="446.0858715131088" text-anchor="middle" font-family="Arial" font-size="10" fill="blue">1.3x</text>
<circle cx="286.66666666666663" cy="461.57452026108746" r="4" fill="blue" />
<text x="286.66666666666663" y="451.57452026108746" text-anchor="middle" font-family="Arial" font-size="10" fill="blue">1.2x</text>
<circle cx="400.0" cy="470.289543583265" r="4" fill="blue" />
<text x="400.0" y="460.289543583265" text-anchor="middle" font-family="Arial" font-size="10" fill="blue">1.0x</text>
<circle cx="513.3333333333333" cy="427.32856240791415" r="4" fill="blue" />
<text x="513.3333333333333" y="417.32856240791415" text-anchor="middle" font-family="Arial" font-size="10" fill="blue">1.7x</text>
<circle cx="626.6666666666667" cy="444.21822945285527" r="4" fill="blue" />
<text x="626.6666666666667" y="434.21822945285527" text-anchor="middle" font-family="Arial" font-size="10" fill="blue">1.4x</text>
<circle cx="740.0" cy="449.47812356356843" r="4" fill="blue" />
<text x="740.0" y="439.47812356356843" text-anchor="middle" font-family="Arial" font-size="10" fill="blue">1.4x</text>
<polyline points="60.0,496.1454446795766 173.33333333333331,236.82672284162038 286.66666666666663,371.6358787302959 400.0,104.03459287122257 513.3333333333333,103.63636363636363 626.6666666666667,247.7713333006795 740.0,217.21944938390146" fill="none" stroke="green" stroke-width="3"/>
<circle cx="60.0" cy="496.1454446795766" r="4" fill="green" />
<text x="60.0" y="486.1454446795766" text-anchor="middle" font-family="Arial" font-size="10" fill="green">0.7x</text>
<circle cx="173.33333333333331" cy="236.82672284162038" r="4" fill="green" />
<text x="173.33333333333331" y="226.82672284162038" text-anchor="middle" font-family="Arial" font-size="10" fill="green">4.6x</text>
<circle cx="286.66666666666663" cy="371.6358787302959" r="4" fill="green" />
<text x="286.66666666666663" y="361.6358787302959" text-anchor="middle" font-family="Arial" font-size="10" fill="green">2.5x</text>
<circle cx="400.0" cy="104.03459287122257" r="4" fill="green" />
<text x="400.0" y="94.03459287122257" text-anchor="middle" font-family="Arial" font-size="10" fill="green">6.5x</text>
<circle cx="513.3333333333333" cy="103.63636363636363" r="4" fill="green" />
<text x="513.3333333333333" y="93.63636363636363" text-anchor="middle" font-family="Arial" font-size="10" fill="green">6.6x</text>
<circle cx="626.6666666666667" cy="247.7713333006795" r="4" fill="green" />
<text x="626.6666666666667" y="237.7713333006795" text-anchor="middle" font-family="Arial" font-size="10" fill="green">4.4x</text>
<circle cx="740.0" cy="217.21944938390146" r="4" fill="green" />
<text x="740.0" y="207.21944938390146" text-anchor="middle" font-family="Arial" font-size="10" fill="green">4.8x</text>
<polyline points="60.0,463.88614364080485 173.33333333333331,421.661227783884 286.66666666666663,443.1645060729639 400.0,434.87565666610635 513.3333333333333,453.8560074669649 626.6666666666667,456.34193370524656 740.0,474.1718537567816" fill="none" stroke="red" stroke-width="3"/>
<circle cx="60.0" cy="463.88614364080485" r="4" fill="red" />
<text x="60.0" y="453.88614364080485" text-anchor="middle" font-family="Arial" font-size="10" fill="red">1.1x</text>
<circle cx="173.33333333333331" cy="421.661227783884" r="4" fill="red" />
<text x="173.33333333333331" y="411.661227783884" text-anchor="middle" font-family="Arial" font-size="10" fill="red">1.8x</text>
<circle cx="286.66666666666663" cy="443.1645060729639" r="4" fill="red" />
<text x="286.66666666666663" y="433.1645060729639" text-anchor="middle" font-family="Arial" font-size="10" fill="red">1.5x</text>
<circle cx="400.0" cy="434.87565666610635" r="4" fill="red" />
<text x="400.0" y="424.87565666610635" text-anchor="middle" font-family="Arial" font-size="10" fill="red">1.6x</text>
<circle cx="513.3333333333333" cy="453.8560074669649" r="4" fill="red" />
<text x="513.3333333333333" y="443.8560074669649" text-anchor="middle" font-family="Arial" font-size="10" fill="red">1.3x</text>
<circle cx="626.6666666666667" cy="456.34193370524656" r="4" fill="red" />
<text x="626.6666666666667" y="446.34193370524656" text-anchor="middle" font-family="Arial" font-size="10" fill="red">1.3x</text>
<circle cx="740.0" cy="474.1718537567816" r="4" fill="red" />
<text x="740.0" y="464.1718537567816" text-anchor="middle" font-family="Arial" font-size="10" fill="red">1.0x</text>
<polyline points="60.0,496.5167511064067 173.33333333333331,422.34169076791943 286.66666666666663,486.17632360799377 400.0,417.2499939385757 513.3333333333333,439.6457713308181 626.6666666666667,488.4144129762361 740.0,479.4858238176407" fill="none" stroke="purple" stroke-width="3"/>
<circle cx="60.0" cy="496.5167511064067" r="4" fill="purple" />
<text x="60.0" y="486.5167511064067" text-anchor="middle" font-family="Arial" font-size="10" fill="purple">0.7x</text>
<circle cx="173.33333333333331" cy="422.34169076791943" r="4" fill="purple" />
<text x="173.33333333333331" y="412.34169076791943" text-anchor="middle" font-family="Arial" font-size="10" fill="purple">1.8x</text>
<circle cx="286.66666666666663" cy="486.17632360799377" r="4" fill="purple" />
<text x="286.66666666666663" y="476.17632360799377" text-anchor="middle" font-family="Arial" font-size="10" fill="purple">0.8x</text>
<circle cx="400.0" cy="417.2499939385757" r="4" fill="purple" />
<text x="400.0" y="407.2499939385757" text-anchor="middle" font-family="Arial" font-size="10" fill="purple">1.8x</text>
<circle cx="513.3333333333333" cy="439.6457713308181" r="4" fill="purple" />
<text x="513.3333333333333" y="429.6457713308181" text-anchor="middle" font-family="Arial" font-size="10" fill="purple">1.5x</text>
<circle cx="626.6666666666667" cy="488.4144129762361" r="4" fill="purple" />
<text x="626.6666666666667" y="478.4144129762361" text-anchor="middle" font-family="Arial" font-size="10" fill="purple">0.8x</text>
<circle cx="740.0" cy="479.4858238176407" r="4" fill="purple" />
<text x="740.0" y="469.4858238176407" text-anchor="middle" font-family="Arial" font-size="10" fill="purple">0.9x</text>
</svg>